<svg width="20" height="20" viewBox="0 0 20 20" fill="none" xmlns="http://www.w3.org/2000/svg">
<g clip-path="url(#clip0_18774_683)">
<path d="M9.99882 16.7637C9.64236 16.7637 9.35352 17.0525 9.35352 17.409V19.3572C9.35352 19.7137 9.64236 20.0025 9.99882 20.0025C10.3553 20.0025 10.6441 19.7137 10.6441 19.3572V17.409C10.6441 17.0525 10.3553 16.7637 9.99882 16.7637Z" fill="#8B8B8B"/>
<path d="M9.99882 3.24054C10.3553 3.24054 10.6441 2.9517 10.6441 2.59523V0.647262C10.6441 0.290793 10.3553 0.00195312 9.99882 0.00195312C9.64236 0.00195312 9.35352 0.290793 9.35352 0.647262V2.59532C9.35352 2.9517 9.64236 3.24054 9.99882 3.24054Z" fill="#8B8B8B"/>
<path d="M4.30668 14.7827L2.92864 16.16C2.67654 16.4121 2.67646 16.8206 2.92838 17.0726C3.05443 17.1987 3.21963 17.2617 3.38483 17.2617C3.54994 17.2617 3.71506 17.1988 3.84102 17.0729L5.21906 15.6955C5.47116 15.4435 5.47124 15.035 5.21931 14.783C4.96721 14.5308 4.5586 14.5307 4.30668 14.7827Z" fill="#8B8B8B"/>
<path d="M15.2365 5.41015C15.4016 5.41015 15.5667 5.34725 15.6927 5.22129L17.0706 3.84394C17.3227 3.59193 17.3228 3.18341 17.0709 2.93139C16.8188 2.67912 16.4102 2.67921 16.1582 2.93113L14.7802 4.30848C14.5281 4.56049 14.528 4.96902 14.7799 5.22112C14.9061 5.34717 15.0713 5.41015 15.2365 5.41015Z" fill="#8B8B8B"/>
<path d="M3.23902 10.0008C3.23902 9.64431 2.95018 9.35547 2.59371 9.35547H0.645308C0.28884 9.35547 0 9.64431 0 10.0008C0 10.3572 0.28884 10.6461 0.645308 10.6461H2.59371C2.95009 10.6461 3.23902 10.3572 3.23902 10.0008Z" fill="#8B8B8B"/>
<path d="M19.3546 9.35547H17.4056C17.0491 9.35547 16.7603 9.64431 16.7603 10.0008C16.7603 10.3572 17.0491 10.6461 17.4056 10.6461H19.3546C19.711 10.6461 19.9999 10.3572 19.9999 10.0008C19.9999 9.64431 19.711 9.35547 19.3546 9.35547Z" fill="#8B8B8B"/>
<path d="M4.30649 5.22105C4.43254 5.3471 4.59766 5.41009 4.76286 5.41009C4.92797 5.41009 5.09317 5.3471 5.21913 5.22114C5.47123 4.96913 5.47123 4.56052 5.21922 4.30859L3.84187 2.93124C3.58977 2.67914 3.18116 2.67923 2.92932 2.93116C2.67722 3.18317 2.67722 3.59178 2.92923 3.84371L4.30649 5.22105Z" fill="#8B8B8B"/>
<path d="M15.6934 14.7828C15.4413 14.5308 15.0327 14.5307 14.7809 14.7827C14.5288 15.0347 14.5288 15.4433 14.7808 15.6954L16.1581 17.0727C16.2841 17.1988 16.4492 17.2617 16.6144 17.2617C16.7795 17.2617 16.9447 17.1988 17.0707 17.0728C17.3228 16.8208 17.3228 16.4122 17.0708 16.1601L15.6934 14.7828Z" fill="#8B8B8B"/>
<path d="M9.9997 4.19141C6.79621 4.19141 4.18994 6.79768 4.18994 10.0012C4.18994 13.2046 6.79621 15.8109 9.9997 15.8109C13.2032 15.8109 15.8094 13.2046 15.8094 10.0012C15.8094 6.79768 13.2032 4.19141 9.9997 4.19141ZM9.9997 14.5204C7.50777 14.5204 5.48056 12.4932 5.48056 10.0012C5.48056 7.50932 7.50777 5.48202 9.9997 5.48202C12.4915 5.48202 14.5187 7.50932 14.5187 10.0012C14.5187 12.493 12.4915 14.5204 9.9997 14.5204Z" fill="#8B8B8B"/>
</g>
<defs>
<clipPath id="clip0_18774_683">
<rect width="20" height="20" fill="white"/>
</clipPath>
</defs>
</svg>
